M48
; DRILL file {KiCad 9.0.2} date 2025-05-30T01:45:34-0700
; FORMAT={-:-/ absolute / metric / decimal}
; #@! TF.CreationDate,2025-05-30T01:45:34-07:00
; #@! TF.GenerationSoftware,Kicad,Pcbnew,9.0.2
; #@! TF.FileFunction,Plated,1,2,PTH
FMAT,2
METRIC
; #@! TA.AperFunction,Plated,PTH,ComponentDrill
T1C0.800
; #@! TA.AperFunction,Plated,PTH,ComponentDrill
T2C0.889
; #@! TA.AperFunction,Plated,PTH,ComponentDrill
T3C1.000
; #@! TA.AperFunction,Plated,PTH,ComponentDrill
T4C1.500
%
G90
G05
T1
X104.775Y-28.337
X104.775Y-35.957
X104.775Y-47.387
X104.775Y-55.007
X104.775Y-66.437
X104.775Y-74.057
X123.825Y-28.277
X123.825Y-35.897
X123.825Y-47.387
X123.825Y-55.007
X123.825Y-66.437
X123.825Y-74.057
X142.875Y-28.337
X142.875Y-35.957
X142.875Y-47.387
X142.875Y-55.007
X142.875Y-66.437
X142.875Y-74.057
X161.925Y-28.337
X161.925Y-35.957
X161.925Y-47.446
X161.925Y-55.066
X161.925Y-66.437
X161.925Y-74.057
X169.128Y-61.317
X176.748Y-61.317
T2
X165.794Y-25.598
X165.794Y-28.138
X165.794Y-30.678
X165.794Y-33.218
X165.794Y-35.758
X165.794Y-38.298
X165.794Y-40.838
X181.034Y-25.598
X181.034Y-28.138
X181.034Y-30.678
X181.034Y-33.218
X181.034Y-35.758
X181.034Y-38.298
X181.034Y-40.838
T3
X165.39Y-69.235
X165.39Y-71.735
X165.39Y-74.235
X179.89Y-69.235
X179.89Y-74.235
T4
X91.44Y-30.797
X91.44Y-49.847
X91.44Y-68.897
X97.79Y-28.258
X97.79Y-47.307
X97.79Y-66.358
X110.49Y-30.797
X110.49Y-49.847
X110.49Y-68.897
X116.84Y-28.258
X116.84Y-47.307
X116.84Y-66.358
X129.54Y-30.797
X129.54Y-49.847
X129.54Y-68.897
X135.89Y-28.258
X135.89Y-47.307
X135.89Y-66.358
X148.59Y-30.797
X148.59Y-49.847
X148.59Y-68.897
X154.94Y-28.258
X154.94Y-47.307
X154.94Y-66.358
T4
G00X172.24Y-66.135
M15
G01X173.54Y-66.135
M16
G05
G00X172.24Y-77.335
M15
G01X173.54Y-77.335
M16
G05
M30
