M48
; DRILL file {KiCad 9.0.2} date 2025-05-30T01:45:34-0700
; FORMAT={-:-/ absolute / metric / decimal}
; #@! TF.CreationDate,2025-05-30T01:45:34-07:00
; #@! TF.GenerationSoftware,Kicad,Pcbnew,9.0.2
; #@! TF.FileFunction,NonPlated,1,2,NPTH
FMAT,2
METRIC
; #@! TA.AperFunction,NonPlated,NPTH,ComponentDrill
T1C1.700
; #@! TA.AperFunction,NonPlated,NPTH,ComponentDrill
T2C4.000
%
G90
G05
T1
X90.17Y-33.337
X90.17Y-52.387
X90.17Y-71.438
X100.33Y-33.337
X100.33Y-52.387
X100.33Y-71.438
X109.22Y-33.337
X109.22Y-52.387
X109.22Y-71.438
X119.38Y-33.337
X119.38Y-52.387
X119.38Y-71.438
X128.27Y-33.337
X128.27Y-52.387
X128.27Y-71.438
X138.43Y-33.337
X138.43Y-52.387
X138.43Y-71.438
X147.32Y-33.337
X147.32Y-52.387
X147.32Y-71.438
X157.48Y-33.337
X157.48Y-52.387
X157.48Y-71.438
T2
X95.25Y-33.337
X95.25Y-52.387
X95.25Y-71.438
X114.3Y-33.337
X114.3Y-52.387
X114.3Y-71.438
X133.35Y-33.337
X133.35Y-52.387
X133.35Y-71.438
X152.4Y-33.337
X152.4Y-52.387
X152.4Y-71.438
M30
