%TF.GenerationSoftware,KiCad,Pcbnew,9.0.2*%
%TF.CreationDate,2025-05-30T01:47:42-07:00*%
%TF.ProjectId,pixelpad,70697865-6c70-4616-942e-6b696361645f,rev?*%
%TF.SameCoordinates,Original*%
%TF.FileFunction,Copper,L2,Bot*%
%TF.FilePolarity,Positive*%
%FSLAX46Y46*%
G04 Gerber Fmt 4.6, Leading zero omitted, Abs format (unit mm)*
G04 Created by KiCad (PCBNEW 9.0.2) date 2025-05-30 01:47:42*
%MOMM*%
%LPD*%
G01*
G04 APERTURE LIST*
G04 Aperture macros list*
%AMRoundRect*
0 Rectangle with rounded corners*
0 $1 Rounding radius*
0 $2 $3 $4 $5 $6 $7 $8 $9 X,Y pos of 4 corners*
0 Add a 4 corners polygon primitive as box body*
4,1,4,$2,$3,$4,$5,$6,$7,$8,$9,$2,$3,0*
0 Add four circle primitives for the rounded corners*
1,1,$1+$1,$2,$3*
1,1,$1+$1,$4,$5*
1,1,$1+$1,$6,$7*
1,1,$1+$1,$8,$9*
0 Add four rect primitives between the rounded corners*
20,1,$1+$1,$2,$3,$4,$5,0*
20,1,$1+$1,$4,$5,$6,$7,0*
20,1,$1+$1,$6,$7,$8,$9,0*
20,1,$1+$1,$8,$9,$2,$3,0*%
G04 Aperture macros list end*
%TA.AperFunction,ComponentPad*%
%ADD10C,2.200000*%
%TD*%
%TA.AperFunction,ComponentPad*%
%ADD11R,2.000000X2.000000*%
%TD*%
%TA.AperFunction,ComponentPad*%
%ADD12C,2.000000*%
%TD*%
%TA.AperFunction,ComponentPad*%
%ADD13R,3.200000X2.000000*%
%TD*%
%TA.AperFunction,ComponentPad*%
%ADD14C,1.524000*%
%TD*%
%TA.AperFunction,ComponentPad*%
%ADD15RoundRect,0.250000X0.550000X-0.550000X0.550000X0.550000X-0.550000X0.550000X-0.550000X-0.550000X0*%
%TD*%
%TA.AperFunction,ComponentPad*%
%ADD16C,1.600000*%
%TD*%
%TA.AperFunction,ComponentPad*%
%ADD17RoundRect,0.250000X0.550000X0.550000X-0.550000X0.550000X-0.550000X-0.550000X0.550000X-0.550000X0*%
%TD*%
%TA.AperFunction,Conductor*%
%ADD18C,0.200000*%
%TD*%
G04 APERTURE END LIST*
D10*
%TO.P,SW3,1,1*%
%TO.N,COL2*%
X135890000Y-28257500D03*
%TO.P,SW3,2,2*%
%TO.N,Net-(D3-A)*%
X129540000Y-30797500D03*
%TD*%
D11*
%TO.P,SW13,A,A*%
%TO.N,ENC_A*%
X165390480Y-69235096D03*
D12*
%TO.P,SW13,B,B*%
%TO.N,ENC_B*%
X165390480Y-74235096D03*
%TO.P,SW13,C,C*%
%TO.N,GND*%
X165390480Y-71735096D03*
D13*
%TO.P,SW13,MP*%
%TO.N,N/C*%
X172890480Y-66135096D03*
X172890480Y-77335096D03*
D12*
%TO.P,SW13,S1,S1*%
%TO.N,Net-(D13-A)*%
X179890480Y-74235096D03*
%TO.P,SW13,S2,S2*%
%TO.N,ENC_SWB*%
X179890480Y-69235096D03*
%TD*%
D10*
%TO.P,SW2,1,1*%
%TO.N,COL1*%
X116840000Y-28257500D03*
%TO.P,SW2,2,2*%
%TO.N,Net-(D2-A)*%
X110490000Y-30797500D03*
%TD*%
%TO.P,SW9,1,1*%
%TO.N,COL0*%
X97790000Y-66357500D03*
%TO.P,SW9,2,2*%
%TO.N,Net-(D9-A)*%
X91440000Y-68897500D03*
%TD*%
%TO.P,SW10,1,1*%
%TO.N,COL1*%
X116840000Y-66357500D03*
%TO.P,SW10,2,2*%
%TO.N,Net-(D10-A)*%
X110490000Y-68897500D03*
%TD*%
%TO.P,SW4,1,1*%
%TO.N,COL3*%
X154940000Y-28257500D03*
%TO.P,SW4,2,2*%
%TO.N,Net-(D4-A)*%
X148590000Y-30797500D03*
%TD*%
%TO.P,SW12,1,1*%
%TO.N,COL3*%
X154940000Y-66357500D03*
%TO.P,SW12,2,2*%
%TO.N,Net-(D12-A)*%
X148590000Y-68897500D03*
%TD*%
%TO.P,SW8,1,1*%
%TO.N,COL3*%
X154940000Y-47307500D03*
%TO.P,SW8,2,2*%
%TO.N,Net-(D8-A)*%
X148590000Y-49847500D03*
%TD*%
D14*
%TO.P,U1,1,GPIO26/ADC0/A0*%
%TO.N,ENC_A*%
X165794392Y-25598416D03*
%TO.P,U1,2,GPIO27/ADC1/A1*%
%TO.N,ENC_B*%
X165794392Y-28138416D03*
%TO.P,U1,3,GPIO28/ADC2/A2*%
%TO.N,ENC_SWB*%
X165794392Y-30678416D03*
%TO.P,U1,4,GPIO29/ADC3/A3*%
%TO.N,COL0*%
X165794392Y-33218416D03*
%TO.P,U1,5,GPIO6/SDA*%
%TO.N,COL1*%
X165794392Y-35758416D03*
%TO.P,U1,6,GPIO7/SCL*%
%TO.N,COL2*%
X165794392Y-38298416D03*
%TO.P,U1,7,GPIO0/TX*%
%TO.N,COL3*%
X165794392Y-40838416D03*
%TO.P,U1,8,GPIO1/RX*%
%TO.N,ROW2*%
X181034392Y-40838416D03*
%TO.P,U1,9,GPIO2/SCK*%
%TO.N,ROW1*%
X181034392Y-38298416D03*
%TO.P,U1,10,GPIO4/MISO*%
%TO.N,ROW0*%
X181034392Y-35758416D03*
%TO.P,U1,11,GPIO3/MOSI*%
%TO.N,unconnected-(U1-GPIO3{slash}MOSI-Pad11)*%
X181034392Y-33218416D03*
%TO.P,U1,12,3V3*%
%TO.N,unconnected-(U1-3V3-Pad12)*%
X181034392Y-30678416D03*
%TO.P,U1,13,GND*%
%TO.N,GND*%
X181034392Y-28138416D03*
%TO.P,U1,14,VBUS*%
%TO.N,+5V*%
X181034392Y-25598416D03*
%TD*%
D10*
%TO.P,SW11,1,1*%
%TO.N,COL2*%
X135890000Y-66357500D03*
%TO.P,SW11,2,2*%
%TO.N,Net-(D11-A)*%
X129540000Y-68897500D03*
%TD*%
%TO.P,SW7,1,1*%
%TO.N,COL2*%
X135890000Y-47307500D03*
%TO.P,SW7,2,2*%
%TO.N,Net-(D7-A)*%
X129540000Y-49847500D03*
%TD*%
%TO.P,SW1,1,1*%
%TO.N,COL0*%
X97790000Y-28257500D03*
%TO.P,SW1,2,2*%
%TO.N,Net-(D1-A)*%
X91440000Y-30797500D03*
%TD*%
%TO.P,SW6,1,1*%
%TO.N,COL1*%
X116840000Y-47307500D03*
%TO.P,SW6,2,2*%
%TO.N,Net-(D6-A)*%
X110490000Y-49847500D03*
%TD*%
%TO.P,SW5,1,1*%
%TO.N,COL0*%
X97790000Y-47307500D03*
%TO.P,SW5,2,2*%
%TO.N,Net-(D5-A)*%
X91440000Y-49847500D03*
%TD*%
D15*
%TO.P,D1,1,K*%
%TO.N,ROW0*%
X104774912Y-35956848D03*
D16*
%TO.P,D1,2,A*%
%TO.N,Net-(D1-A)*%
X104774912Y-28336848D03*
%TD*%
D17*
%TO.P,D13,1,K*%
%TO.N,ROW2*%
X176748136Y-61317136D03*
D16*
%TO.P,D13,2,A*%
%TO.N,Net-(D13-A)*%
X169128136Y-61317136D03*
%TD*%
D15*
%TO.P,D10,1,K*%
%TO.N,ROW2*%
X123824896Y-74056816D03*
D16*
%TO.P,D10,2,A*%
%TO.N,Net-(D10-A)*%
X123824896Y-66436816D03*
%TD*%
D15*
%TO.P,D4,1,K*%
%TO.N,ROW0*%
X161924864Y-35956848D03*
D16*
%TO.P,D4,2,A*%
%TO.N,Net-(D4-A)*%
X161924864Y-28336848D03*
%TD*%
D15*
%TO.P,D5,1,K*%
%TO.N,ROW1*%
X104774912Y-55006832D03*
D16*
%TO.P,D5,2,A*%
%TO.N,Net-(D5-A)*%
X104774912Y-47386832D03*
%TD*%
D15*
%TO.P,D11,1,K*%
%TO.N,ROW2*%
X142874880Y-74056816D03*
D16*
%TO.P,D11,2,A*%
%TO.N,Net-(D11-A)*%
X142874880Y-66436816D03*
%TD*%
D15*
%TO.P,D12,1,K*%
%TO.N,ROW2*%
X161924864Y-74056816D03*
D16*
%TO.P,D12,2,A*%
%TO.N,Net-(D12-A)*%
X161924864Y-66436816D03*
%TD*%
D15*
%TO.P,D8,1,K*%
%TO.N,ROW1*%
X161924864Y-55066360D03*
D16*
%TO.P,D8,2,A*%
%TO.N,Net-(D8-A)*%
X161924864Y-47446360D03*
%TD*%
D15*
%TO.P,D9,1,K*%
%TO.N,ROW2*%
X104774912Y-74056816D03*
D16*
%TO.P,D9,2,A*%
%TO.N,Net-(D9-A)*%
X104774912Y-66436816D03*
%TD*%
D15*
%TO.P,D3,1,K*%
%TO.N,ROW0*%
X142874880Y-35956848D03*
D16*
%TO.P,D3,2,A*%
%TO.N,Net-(D3-A)*%
X142874880Y-28336848D03*
%TD*%
D15*
%TO.P,D2,1,K*%
%TO.N,ROW0*%
X123824896Y-35897344D03*
D16*
%TO.P,D2,2,A*%
%TO.N,Net-(D2-A)*%
X123824896Y-28277344D03*
%TD*%
D15*
%TO.P,D7,1,K*%
%TO.N,ROW1*%
X142874880Y-55006832D03*
D16*
%TO.P,D7,2,A*%
%TO.N,Net-(D7-A)*%
X142874880Y-47386832D03*
%TD*%
D15*
%TO.P,D6,1,K*%
%TO.N,ROW1*%
X123824896Y-55006832D03*
D16*
%TO.P,D6,2,A*%
%TO.N,Net-(D6-A)*%
X123824896Y-47386832D03*
%TD*%
D18*
%TO.N,Net-(D1-A)*%
X91440000Y-30797500D02*
X102314260Y-30797500D01*
X102314260Y-30797500D02*
X104774912Y-28336848D01*
%TO.N,ROW0*%
X142874880Y-35956848D02*
X161924864Y-35956848D01*
X104774912Y-35956848D02*
X123765392Y-35956848D01*
X123765392Y-35956848D02*
X123824896Y-35897344D01*
X123824896Y-35897344D02*
X142815376Y-35897344D01*
X162789432Y-36821416D02*
X179971392Y-36821416D01*
X179971392Y-36821416D02*
X181034392Y-35758416D01*
X142815376Y-35897344D02*
X142874880Y-35956848D01*
X161924864Y-35956848D02*
X162789432Y-36821416D01*
%TO.N,Net-(D2-A)*%
X121304740Y-30797500D02*
X123824896Y-28277344D01*
X110490000Y-30797500D02*
X121304740Y-30797500D01*
%TO.N,Net-(D3-A)*%
X129540000Y-30797500D02*
X140414228Y-30797500D01*
X140414228Y-30797500D02*
X142874880Y-28336848D01*
%TO.N,Net-(D4-A)*%
X148590000Y-30797500D02*
X159464212Y-30797500D01*
X159464212Y-30797500D02*
X161924864Y-28336848D01*
%TO.N,ROW1*%
X164266448Y-55066360D02*
X181034392Y-38298416D01*
X123824896Y-55006832D02*
X142874880Y-55006832D01*
X161924864Y-55066360D02*
X164266448Y-55066360D01*
X142874880Y-55006832D02*
X161865336Y-55006832D01*
X161865336Y-55006832D02*
X161924864Y-55066360D01*
X104774912Y-55006832D02*
X123824896Y-55006832D01*
%TO.N,Net-(D5-A)*%
X102314244Y-49847500D02*
X104774912Y-47386832D01*
X91440000Y-49847500D02*
X102314244Y-49847500D01*
%TO.N,Net-(D6-A)*%
X121364228Y-49847500D02*
X123824896Y-47386832D01*
X110490000Y-49847500D02*
X121364228Y-49847500D01*
%TO.N,Net-(D7-A)*%
X129540000Y-49847500D02*
X140414212Y-49847500D01*
X140414212Y-49847500D02*
X142874880Y-47386832D01*
%TO.N,ROW2*%
X176748136Y-61317136D02*
X176748136Y-45124672D01*
X123824896Y-74056816D02*
X142874880Y-74056816D01*
X142874880Y-74056816D02*
X161924864Y-74056816D01*
X161924864Y-74056816D02*
X163404144Y-75536096D01*
X176748136Y-45124672D02*
X181034392Y-40838416D01*
X163404144Y-75536096D02*
X166691480Y-75536096D01*
X176748136Y-65479440D02*
X176748136Y-61317136D01*
X104774912Y-74056816D02*
X123824896Y-74056816D01*
X166691480Y-75536096D02*
X176748136Y-65479440D01*
%TO.N,Net-(D8-A)*%
X148590000Y-49847500D02*
X159523724Y-49847500D01*
X159523724Y-49847500D02*
X161924864Y-47446360D01*
%TO.N,Net-(D9-A)*%
X91440000Y-68897500D02*
X102314228Y-68897500D01*
X102314228Y-68897500D02*
X104774912Y-66436816D01*
%TO.N,Net-(D10-A)*%
X110490000Y-68897500D02*
X121364212Y-68897500D01*
X121364212Y-68897500D02*
X123824896Y-66436816D01*
%TO.N,Net-(D11-A)*%
X129540000Y-68897500D02*
X140414196Y-68897500D01*
X140414196Y-68897500D02*
X142874880Y-66436816D01*
%TO.N,Net-(D12-A)*%
X159464180Y-68897500D02*
X161924864Y-66436816D01*
X148590000Y-68897500D02*
X159464180Y-68897500D01*
%TO.N,ENC_SWB*%
X181060702Y-34281416D02*
X169397392Y-34281416D01*
X169397392Y-34281416D02*
X165794392Y-30678416D01*
X182097392Y-67028184D02*
X182097392Y-35318106D01*
X182097392Y-35318106D02*
X181060702Y-34281416D01*
X179890480Y-69235096D02*
X182097392Y-67028184D01*
%TD*%
M02*
